#!OML:ASF F:\twosubjects\two\Thursday\Session 1\Rory.ASF
:FULLY-SPECIFIED
:DEGREES
299
root 9.21683 18.5856 -1.73471 5.63136 4.14322 2.8442
lowerback -2.22441 0.954283 -4.25323
upperback -0.171153 1.39653 -1.60651
thorax 1.01026 0.68253 0.77612
lowerneck -7.99153 -0.19471 -0.258574
upperneck 32.4052 -1.25522 3.54538
head 11.9515 -0.134465 1.23099
rclavicle 1.43622e-014 -5.96354e-015
rhumerus 28.8731 9.14496 -87.8107
rradius 47.0953
rwrist -7.95806
rhand -55.0943 21.3928
rfingers 7.12502
rthumb -27.4704 -6.62381
lclavicle 1.43622e-014 -5.96354e-015
lhumerus 27.7718 -7.58255 79.8655
lradius 44.6063
lwrist 6.46431
lhand -25.5247 58.9808
lfingers 7.12502
lthumb 1.00477 1888.96
rfemur -12.8439 9.26439 11.9617
rtibia 22.8403
rfoot -13.9687 -22.7952
rtoes -5.4782
lfemur -7.48973 -1.26783 -22.3943
ltibia 17.3432
lfoot -14.2092 -1.94646
ltoes 7.28699
300
root 9.19331 18.5846 -1.72507 5.23972 4.17254 1.97945
lowerback -2.28544 1.02321 -3.36375
upperback 0.106552 1.47512 -1.36976
thorax 1.34198 0.718004 0.529358
lowerneck -8.30017 -0.211242 -0.163757
upperneck 32.3905 -1.32566 3.617
head 12.0121 -0.143187 1.23311
rclavicle 4.14963e-015 2.22639e-014
rhumerus 29.013 9.13306 -87.9777
rradius 47.1569
rwrist -7.51401
rhand -55.0101 19.0885
rfingers 7.12502
rthumb -27.3899 -8.94087
lclavicle 4.14963e-015 2.22639e-014
lhumerus 28.1149 -7.6101 79.6113
lradius 44.5507
lwrist 6.85767
lhand -24.4319 58.7262
lfingers 7.12502
lthumb 2.06025 1888.7
rfemur -12.3454 9.6369 13.0926
rtibia 22.6521
rfoot -13.9095 -23.0563
rtoes -4.99756
lfemur -7.22547 -1.12387 -21.3382
ltibia 17.546
lfoot -14.2611 -2.0894
ltoes 7.64413
301
root 9.17205 18.5805 -1.71843 4.83867 4.1795 1.32847
lowerback -1.72324 1.19775 -2.60493
upperback 0.0607674 1.66328 -1.25353
thorax 0.991216 0.821009 0.216873
lowerneck -8.79334 -0.312875 -0.101999
upperneck 32.8496 -1.56963 3.81757
head 12.313 -0.208406 1.27681
rclavicle 5.51627e-015 -2.38542e-015
rhumerus 28.7847 8.64462 -88.3089
rradius 47.164
rwrist -7.1863
rhand -54.6516 19.4209
rfingers 7.12502
rthumb -27.0469 -8.66226
lclavicle 5.51627e-015 -2.38542e-015
lhumerus 27.9874 -7.95008 79.5671
lradius 44.577
lwrist 7.01147
lhand -24.3646 58.8814
lfingers 7.12502
lthumb 2.12527 1888.85
rfemur -11.8087 9.83016 13.9779
rtibia 22.3838
rfoot -13.8528 -23.2682
rtoes -4.07697
lfemur -6.99954 -0.951521 -20.5247
ltibia 17.8828
lfoot -14.5675 -2.22824
ltoes 7.4108
302
root 9.1655 18.5811 -1.7155 5.11376 4.27351 1.5936
lowerback -2.08365 1.29548 -2.46194
upperback 0.0339793 1.8063 -1.50915
thorax 1.17525 0.892361 -0.112389
lowerneck -8.89678 -0.394349 -0.0648483
upperneck 32.8011 -1.78238 4.09403
head 12.3243 -0.262794 1.34819
rclavicle 1.11568e-014 -1.51076e-014
rhumerus 29.0023 8.25039 -88.3691
rradius 46.9455
rwrist -7.35508
rhand -54.2892 21.2738
rfingers 7.12502
rthumb -26.7001 -6.86272
lclavicle 1.11568e-014 -1.51076e-014
lhumerus 28.2781 -8.57106 79.156
lradius 44.2991
lwrist 7.26434
lhand -24.3754 58.6642
lfingers 7.12502
lthumb 2.11482 1888.63
rfemur -11.9551 9.24548 13.6566
rtibia 22.1521
rfoot -13.7205 -22.9002
rtoes -4.13867
lfemur -7.42458 -0.988469 -20.7949
ltibia 18.1883
lfoot -14.8196 -2.11651
ltoes 5.80045
303
root 9.15206 18.5831 -1.71363 5.29498 4.4128 1.4187
lowerback -2.16344 1.34463 -2.29616
upperback -0.190184 1.86319 -1.37634
thorax 0.990041 0.924202 -0.0686905
lowerneck -8.51696 -0.468375 -0.0598513
upperneck 32.6739 -1.86638 4.05908
head 12.1938 -0.308184 1.3209
rclavicle 5.29264e-015 8.34896e-015
rhumerus 28.8541 8.37657 -87.8996
rradius 46.7956
rwrist -7.64649
rhand -54.2386 20.8155
rfingers 7.12502
rthumb -26.6517 -7.32831
lclavicle 5.29264e-015 8.34896e-015
lhumerus 28.2296 -9.04048 78.9549
lradius 44.0476
lwrist 7.77729
lhand -24.9627 58.8258
lfingers 7.12502
lthumb 1.5476 1888.8
rfemur -12.1251 9.03667 13.8613
rtibia 22.1269
rfoot -13.726 -22.7906
rtoes -4.57112
lfemur -7.66802 -0.971889 -20.5454
ltibia 18.2314
lfoot -14.7064 -2.11691
ltoes 5.49004
304
root 9.13518 18.5866 -1.71819 5.46752 4.54692 1.72764
lowerback -2.36335 1.30559 -2.46868
upperback -0.194023 1.8243 -1.51628
thorax 1.09795 0.903354 -0.11162
lowerneck -8.39767 -0.490314 0.123711
upperneck 32.497 -1.93513 4.07633
head 12.0977 -0.318424 1.28327
rclavicle 1.71203e-014 7.95139e-015
rhumerus 28.961 8.37219 -87.8981
rradius 46.7776
rwrist -7.79174
rhand -54.1449 20.7433
rfingers 7.12502
rthumb -26.562 -7.41415
lclavicle 1.71203e-014 7.95139e-015
lhumerus 28.3571 -8.87709 78.9459
lradius 43.9394
lwrist 7.64938
lhand -25.8408 59.2892
lfingers 7.12502
lthumb 0.699486 1889.27
rfemur -12.3016 9.28993 13.5329
rtibia 22.1944
rfoot -13.8583 -23.1152
rtoes -4.77344
lfemur -7.82112 -1.13268 -20.8231
ltibia 18.1623
lfoot -14.5196 -2.14813
ltoes 6.52018
305
root 9.12566 18.5933 -1.72351 5.66263 4.52843 2.22635
lowerback -2.54899 1.23717 -2.94906
upperback -0.178321 1.7545 -1.54429
thorax 1.20575 0.864839 0.130463
lowerneck -8.44051 -0.450468 0.00772372
upperneck 32.3478 -1.86762 4.13318
head 12.0449 -0.297306 1.33104
rclavicle 6.70898e-015 -5.1684e-015
rhumerus 29.1769 8.65791 -87.8338
rradius 46.7814
rwrist -7.9595
rhand -54.1541 20.6443
rfingers 7.12502
rthumb -26.5709 -7.51178
lclavicle 6.70898e-015 -5.1684e-015
lhumerus 28.3169 -8.44485 79.1495
lradius 44.0208
lwrist 7.49453
lhand -26.3158 60.0611
lfingers 7.12502
lthumb 0.240729 1709.96
rfemur -12.5268 9.37889 12.965
rtibia 22.2575
rfoot -13.8227 -23.2401
rtoes -4.73817
lfemur -7.98781 -1.479 -21.3642
ltibia 18.0874
lfoot -14.4493 -1.79133
ltoes 6.71479
306
root 9.10529 18.5961 -1.71609 5.58531 4.475 2.0147
lowerback -2.61386 1.2276 -2.87911
upperback -0.11429 1.74117 -1.32733
thorax 1.30338 0.856309 0.315702
lowerneck -8.60672 -0.373611 -0.0819438
upperneck 32.3069 -1.73549 4.12209
head 12.059 -0.248964 1.35867
rclavicle -6.70898e-016 5.96354e-016
rhumerus 29.3544 9.07249 -87.7592
rradius 46.6793
rwrist -7.71009
rhand -54.3405 18.2266
rfingers 7.12502
rthumb -26.7492 -9.9024
lclavicle -6.70898e-016 5.96354e-016
lhumerus 28.2683 -8.41475 78.9598
lradius 44.1078
lwrist 7.89617
lhand -26.9219 60.4345
lfingers 7.12502
lthumb -0.344655 1709.59
rfemur -12.5155 9.70186 13.2926
rtibia 22.4136
rfoot -14.0101 -23.4612
rtoes -3.69866
lfemur -7.80926 -1.47222 -21.0632
ltibia 17.8755
lfoot -14.3685 -1.65426
ltoes 6.11038
307
root 9.07678 18.5919 -1.70592 5.48452 4.68936 1.96068
lowerback -2.73307 1.14539 -3.04804
upperback 0.040823 1.64381 -1.18069
thorax 1.52297 0.802002 0.561708
lowerneck -8.83879 -0.344452 -0.144901
upperneck 32.2161 -1.68199 4.12606
head 12.069 -0.230893 1.37671
rclavicle -4.09993e-015 5.1684e-015
rhumerus 29.56 9.15216 -87.8769
rradius 46.5687
rwrist -7.81927
rhand -55.0774 20.3777
rfingers 7.12502
rthumb -27.4542 -7.64151
lclavicle -4.09993e-015 5.1684e-015
lhumerus 28.332 -8.1863 79.0275
lradius 44.0411
lwrist 7.76268
lhand -26.6292 58.9467
lfingers 7.12502
lthumb -0.061952 1888.93
rfemur -12.3249 9.83889 13.5225
rtibia 22.5455
rfoot -14.4972 -23.6587
rtoes -2.57267
lfemur -7.57197 -1.33725 -20.8539
ltibia 17.7095
lfoot -14.3165 -2.03407
ltoes 5.98602
308
root 9.05762 18.5872 -1.69717 5.39442 4.93077 2.20453
lowerback -2.74595 1.06114 -3.32328
upperback 0.132816 1.54446 -1.22835
thorax 1.62206 0.748179 0.664237
lowerneck -8.90515 -0.353714 -0.143305
upperneck 32.0539 -1.71255 4.19197
head 12.0185 -0.237981 1.39461
rclavicle 1.11071e-014 -2.127e-014
rhumerus 29.5621 9.25569 -88.0591
rradius 46.5978
rwrist -7.49919
rhand -55.2466 19.9501
rfingers 7.12502
rthumb -27.616 -8.04334
lclavicle 1.11071e-014 -2.127e-014
lhumerus 28.2597 -7.88041 79.2537
lradius 44.0479
lwrist 7.20122
lhand -25.7047 57.8149
lfingers 7.12502
lthumb 0.830921 1887.79
rfemur -12.0894 9.34881 13.3822
rtibia 22.5516
rfoot -14.7291 -23.3304
rtoes -2.62072
lfemur -7.41674 -1.50982 -21.0347
ltibia 17.7116
lfoot -14.3516 -2.11715
ltoes 5.75337
309
root 9.04274 18.5862 -1.68928 5.38154 5.05628 2.30326
lowerback -2.67701 1.10213 -3.23514
upperback 0.0610168 1.59316 -1.35378
thorax 1.51386 0.775914 0.485874
lowerneck -8.88778 -0.395447 0.115951
upperneck 32.04 -1.82282 4.17669
head 12.0116 -0.257853 1.3292
rclavicle 1.58779e-014 1.8487e-014
rhumerus 29.438 9.10007 -88.2193
rradius 46.5034
rwrist -7.18451
rhand -55.1104 19.1383
rfingers 7.12502
rthumb -27.4857 -8.87587
lclavicle 1.58779e-014 1.8487e-014
lhumerus 28.0964 -7.90422 79.4252
lradius 44.0945
lwrist 6.8276
lhand -26.2552 58.7625
lfingers 7.12502
lthumb 0.299251 1888.74
rfemur -12.0724 9.07398 13.3311
rtibia 22.5883
rfoot -14.7682 -23.1465
rtoes -2.79152
lfemur -7.37852 -1.73458 -21.1066
ltibia 17.6445
lfoot -14.3206 -1.93132
ltoes 4.88751
